<?xml version="1.0" encoding="utf-8"?>
<!-- Generator: Adobe Illustrator 27.5.0, SVG Export Plug-In . SVG Version: 6.00 Build 0)  -->
<svg version="1.1" xmlns="http://www.w3.org/2000/svg" xmlns:xlink="http://www.w3.org/1999/xlink" x="0px" y="0px"
	 viewBox="0 0 500 500" style="enable-background:new 0 0 500 500;" xml:space="preserve">
<g id="background">
</g>
<g id="designed">
	<g>
		
		<g>
			
			
		</g>
	</g>
</g>
<g id="objects">
	<g>
		<g>
			<path style="fill:#ABD7DB;" d="M418.01,397.206c21.465-32.065,33.99-70.62,33.99-112.104
				c0-111.444-90.343-201.787-201.787-201.787S48.426,173.659,48.426,285.103c0,41.484,12.525,80.039,33.99,112.104H418.01z"/>
		</g>
		<g>
			
				<ellipse transform="matrix(0.7071 -0.7071 0.7071 0.7071 -111.2561 186.5088)" style="fill:#FFFFFF;" cx="169.508" cy="227.552" rx="9.869" ry="9.869"/>
			
				<ellipse transform="matrix(0.9728 -0.2318 0.2318 0.9728 -34.248 49.5828)" style="fill:#FFFFFF;" cx="193.881" cy="170.538" rx="20.481" ry="20.481"/>
			
				<ellipse transform="matrix(0.7071 -0.7071 0.7071 0.7071 -24.9758 161.0518)" style="fill:#FFFFFF;" cx="181.919" cy="110.674" rx="29.155" ry="29.155"/>
			<ellipse style="fill:#FFFFFF;" cx="150.071" cy="156.308" rx="20.653" ry="19.024"/>
			<path style="fill:#FFFFFF;" d="M147.542,195.805c0,6.681,5.416,12.098,12.098,12.098c6.681,0,12.098-5.416,12.098-12.098
				c0-6.681-5.416-12.098-12.098-12.098C152.958,183.707,147.542,189.123,147.542,195.805z"/>
			<circle style="fill:#FFFFFF;" cx="179.956" cy="205.939" r="5.168"/>
		</g>
	</g>
	<g>
		<polygon style="fill:#DBDBDB;" points="126.766,394.68 136.824,394.68 136.824,368.304 131.795,363.467 126.766,368.304 		"/>
		<polygon style="opacity:0.8;fill:#FFFFFF;" points="116.709,394.68 126.766,394.68 126.766,368.304 121.738,363.467 
			116.709,368.304 		"/>
		<polygon style="fill:#DBDBDB;" points="106.651,394.68 116.709,394.68 116.709,368.304 111.68,363.467 106.651,368.304 		"/>
		<polygon style="opacity:0.8;fill:#FFFFFF;" points="96.593,394.68 106.651,394.68 106.651,368.304 101.622,363.467 
			96.593,368.304 		"/>
		<polygon style="fill:#DBDBDB;" points="403.148,394.68 413.206,394.68 413.206,368.304 408.177,363.467 403.148,368.304 		"/>
		<polygon style="opacity:0.8;fill:#FFFFFF;" points="393.09,394.68 403.148,394.68 403.148,368.304 398.119,363.467 
			393.09,368.304 		"/>
		<polygon style="fill:#DBDBDB;" points="383.032,394.68 393.09,394.68 393.09,368.304 388.061,363.467 383.032,368.304 		"/>
		<polygon style="opacity:0.8;fill:#FFFFFF;" points="372.974,394.68 383.032,394.68 383.032,368.304 378.003,363.467 
			372.974,368.304 		"/>
		<polygon style="fill:#DBDBDB;" points="362.917,394.68 372.974,394.68 372.974,368.304 367.946,363.467 362.917,368.304 		"/>
		<g>
			<polygon style="fill:#DBDBDB;" points="87.868,394.68 96.487,394.68 96.487,369.142 92.178,364.459 87.868,369.142 			"/>
			<g>
				<path style="fill:#4D8974;" d="M72.461,339.913c0,38.814,7.564,39.901,16.894,39.901c9.33,0,16.894-1.087,16.894-39.901
					s-7.564-100.657-16.894-100.657C80.025,239.256,72.461,301.099,72.461,339.913z"/>
				<path style="fill:#2C755D;" d="M89.355,239.256c-0.054,0-0.108,0.012-0.162,0.017c5.233,20.922,8.781,58.303,8.781,84.886
					c0,38.814-7.564,39.901-16.894,39.901c-2.579,0-5.022-0.085-7.209-1.025c2.609,16.176,8.559,16.78,15.484,16.78
					c9.33,0,16.894-1.087,16.894-39.901S98.685,239.256,89.355,239.256z"/>
			</g>
			<rect x="86.616" y="379.701" style="fill:#7A6947;" width="5.478" height="14.98"/>
			<rect x="86.616" y="379.701" style="fill:#594B31;" width="5.478" height="4.331"/>
		</g>
	</g>
	<g>
		<polygon style="fill:#EFDA86;" points="238.51,223.01 238.51,265.76 131.795,299.285 131.795,395.385 238.51,395.385 
			241.063,395.385 362.917,395.385 362.917,223.01 298.855,165.122 		"/>
		<g>
			<g>
				<circle style="fill:#DBDBDB;" cx="300.721" cy="231.89" r="18.591"/>
				<path style="fill:#DBDBDB;" d="M300.72,252.075c-11.13,0-20.184-9.055-20.184-20.185c0-11.13,9.055-20.185,20.184-20.185
					c11.13,0,20.185,9.055,20.185,20.185C320.905,243.02,311.85,252.075,300.72,252.075z M300.72,214.893
					c-9.372,0-16.997,7.625-16.997,16.998c0,9.372,7.624,16.997,16.997,16.997c9.372,0,16.998-7.625,16.998-16.997
					C317.718,222.518,310.093,214.893,300.72,214.893z"/>
			</g>
			<g>
				<rect x="299.127" y="213.299" style="fill:#DBDBDB;" width="3.187" height="37.182"/>
			</g>
			<g>
				<rect x="282.13" y="230.297" style="fill:#DBDBDB;" width="37.182" height="3.187"/>
			</g>
		</g>
		<g>
			<path style="fill:#DBDBDB;" d="M271.816,308.335c-8.582,0-15.539,6.495-15.539,14.507v46.726h31.079v-46.726
				C287.355,314.829,280.398,308.335,271.816,308.335z"/>
			<path style="fill:#DBDBDB;" d="M288.949,371.161h-34.266v-48.319c0-8.878,7.686-16.101,17.133-16.101
				c9.447,0,17.133,7.223,17.133,16.101V371.161z M257.87,367.974h27.892v-45.132c0-7.121-6.256-12.914-13.946-12.914
				c-7.69,0-13.946,5.793-13.946,12.914V367.974z"/>
		</g>
		<path style="fill:#DBDBDB;" d="M191.815,306.741c-17.402,0-32.886,12.122-32.886,21.678v2.208v38.941v1.594h65.772v-1.594v-38.941
			v-2.208C224.701,318.863,209.218,306.741,191.815,306.741z"/>
		<rect x="158.211" y="238.689" style="fill:#EFDA86;" width="20.739" height="46.394"/>
		<rect x="158.211" y="238.689" style="opacity:0.1;" width="20.739" height="11.93"/>
		<g>
			<rect x="153.799" y="227.933" style="fill:#446382;" width="28.987" height="16.732"/>
		</g>
		<g style="opacity:0.7;">
			<rect x="153.799" y="239.945" style="fill:#334856;" width="28.987" height="4.72"/>
		</g>
		<g style="opacity:0.1;">
			<polygon points="238.51,265.76 131.795,299.286 131.795,318.35 238.51,284.825 			"/>
			<polygon points="298.855,165.122 238.51,223.01 238.51,242.074 298.855,187.374 362.917,242.074 362.917,223.01 			"/>
		</g>
		<g>
			<polygon style="fill:#446382;" points="367.574,237.686 298.838,176.321 233.828,233.992 222.725,221.475 298.873,153.923 
				378.717,225.204 			"/>
		</g>
		<polygon style="opacity:0.7;fill:#334856;" points="298.706,170.538 230.899,230.69 233.828,233.992 298.838,176.321 
			367.574,237.686 370.388,234.533 		"/>
		<polygon style="fill:#446382;" points="238.618,256.71 113.048,297.739 118.788,313.457 238.618,274.523 		"/>
		<polygon style="opacity:0.7;fill:#334856;" points="238.618,269.43 117.45,309.793 118.788,313.457 238.618,274.523 		"/>
		<path style="fill:#9BCBD3;stroke:#FFFFFF;stroke-width:3.187;stroke-miterlimit:10;" d="M269.634,308.334
			c-8.582,0-15.54,6.495-15.54,14.507v46.726h31.079v-46.726C285.174,314.829,278.216,308.334,269.634,308.334z"/>
		<g>
			
				<line style="fill:none;stroke:#FFFFFF;stroke-width:3.187;stroke-miterlimit:10;" x1="254.095" y1="329.026" x2="285.174" y2="329.026"/>
			
				<line style="fill:none;stroke:#FFFFFF;stroke-width:3.187;stroke-miterlimit:10;" x1="254.095" y1="348.496" x2="285.174" y2="348.496"/>
			
				<line style="fill:none;stroke:#FFFFFF;stroke-width:3.187;stroke-miterlimit:10;" x1="269.634" y1="327.433" x2="269.634" y2="371.161"/>
		</g>
		<g>
			<path style="fill:#9BCBD3;stroke:#FFFFFF;stroke-width:3.187;stroke-miterlimit:10;" d="M189.484,308.334
				c-17.282,0-31.292,12.072-31.292,20.085v41.149h62.584v-41.149C220.776,320.406,206.766,308.334,189.484,308.334z"/>
			<g>
				
					<line style="fill:none;stroke:#FFFFFF;stroke-width:3.187;stroke-miterlimit:10;" x1="158.192" y1="330.627" x2="221.494" y2="330.627"/>
				
					<line style="fill:none;stroke:#FFFFFF;stroke-width:3.187;stroke-miterlimit:10;" x1="158.192" y1="350.097" x2="221.494" y2="350.097"/>
				
					<line style="fill:none;stroke:#FFFFFF;stroke-width:3.187;stroke-miterlimit:10;" x1="173.838" y1="330.627" x2="173.838" y2="369.568"/>
				
					<line style="fill:none;stroke:#FFFFFF;stroke-width:3.187;stroke-miterlimit:10;" x1="189.484" y1="330.627" x2="189.484" y2="369.568"/>
				
					<line style="fill:none;stroke:#FFFFFF;stroke-width:3.187;stroke-miterlimit:10;" x1="205.13" y1="330.627" x2="205.13" y2="369.568"/>
				
					<line style="fill:none;stroke:#FFFFFF;stroke-width:3.187;stroke-miterlimit:10;" x1="220.776" y1="330.627" x2="220.776" y2="369.568"/>
				
					<line style="fill:none;stroke:#FFFFFF;stroke-width:3.187;stroke-miterlimit:10;" x1="158.192" y1="330.627" x2="158.192" y2="369.568"/>
			</g>
		</g>
		<g>
			<g>
				<path style="fill:#DBDBDB;" d="M310.988,391.276v-84.707c0-8.878,7.686-16.1,17.133-16.1c9.447,0,17.133,7.223,17.133,16.1
					v84.707H310.988z"/>
				<g>
					<path style="fill:#DBDBDB;" d="M328.121,292.062c8.582,0,15.539,6.495,15.539,14.507v83.113h-31.079V306.57
						C312.582,298.557,319.539,292.062,328.121,292.062 M328.121,288.875c-10.326,0-18.726,7.938-18.726,17.694v83.113v3.187h3.187
						h31.079h3.187v-3.187V306.57C346.848,296.813,338.447,288.875,328.121,288.875L328.121,288.875z"/>
				</g>
			</g>
			<g>
				<path style="fill:#DBDBDB;" d="M308.893,391.276v-84.707c0-8.878,7.686-16.1,17.133-16.1s17.133,7.223,17.133,16.1v84.707
					H308.893z"/>
				<g>
					<path style="fill:#FFFFFF;" d="M326.025,292.062c8.582,0,15.539,6.495,15.539,14.507v83.113h-31.079V306.57
						C310.486,298.557,317.443,292.062,326.025,292.062 M326.025,288.875c-10.326,0-18.726,7.938-18.726,17.694v83.113v3.187h3.187
						h31.079h3.187v-3.187V306.57C344.752,296.813,336.351,288.875,326.025,288.875L326.025,288.875z"/>
				</g>
			</g>
			<path style="opacity:0.8;fill:#FFFFFF;" d="M314.824,378.258h22.403V306.57c0-5.607-5.025-10.169-11.201-10.169
				c-6.176,0-11.201,4.562-11.201,10.169V378.258z"/>
		</g>
		<g>
			
				<ellipse transform="matrix(0.7071 -0.7071 0.7071 0.7071 -75.399 279.0283)" style="fill:#9BCBD3;stroke:#FFFFFF;stroke-width:3.187;stroke-miterlimit:10;" cx="299.117" cy="230.529" rx="18.591" ry="18.591"/>
			
				<line style="fill:none;stroke:#FFFFFF;stroke-width:3.187;stroke-miterlimit:10;" x1="299.117" y1="211.938" x2="299.117" y2="249.12"/>
			
				<line style="fill:none;stroke:#FFFFFF;stroke-width:3.187;stroke-miterlimit:10;" x1="280.526" y1="230.529" x2="317.708" y2="230.529"/>
		</g>
		<rect x="153.854" y="364.975" style="opacity:0.1;" width="74.85" height="14.929"/>
		<rect x="250.583" y="364.975" style="opacity:0.1;" width="41.691" height="14.929"/>
		<path style="fill:#4D8974;" d="M283.789,357.954c-2.359,0-4.393,1.37-5.366,3.354c-0.262,0.005-0.518,0.031-0.769,0.074
			c-0.48-2.333-2.545-4.087-5.02-4.087c-2.5,0-4.58,1.791-5.031,4.16c-0.689-0.345-1.464-0.543-2.287-0.543
			c-0.337,0-0.666,0.035-0.984,0.097c-1.153-2.293-3.521-3.87-6.262-3.87c-3.873,0-7.012,3.139-7.012,7.012
			c0,3.873,3.139,7.012,7.012,7.012c1.461,0,2.817-0.448,3.94-1.212c0.893,0.755,2.046,1.212,3.306,1.212
			c2.5,0,4.579-1.791,5.031-4.16c0.689,0.345,1.464,0.543,2.287,0.543c0.297,0,0.586-0.031,0.869-0.079
			c0.48,2.333,2.545,4.087,5.02,4.087c1.562,0,2.958-0.701,3.898-1.802c0.44,0.103,0.896,0.163,1.367,0.163
			c3.303,0,5.98-2.677,5.98-5.98C289.769,360.631,287.091,357.954,283.789,357.954z"/>
		<path style="fill:#4D8974;" d="M221.338,360.123c-1.581,0-2.977,0.789-3.82,1.992c-1.15-1.224-2.779-1.992-4.59-1.992
			c-1.058,0-2.053,0.263-2.928,0.724c-0.229-4.559-3.987-8.188-8.603-8.188c-4.38,0-7.988,3.267-8.543,7.496
			c-0.204-0.019-0.41-0.031-0.62-0.031c-1.84,0-3.505,0.748-4.708,1.955c-0.179-3.788-3.298-6.807-7.131-6.807
			c-3.597,0-6.565,2.66-7.066,6.118c-0.955-0.791-2.18-1.266-3.517-1.266c-1.136,0-2.191,0.344-3.068,0.932
			c-1.144-2.319-3.525-3.918-6.285-3.918c-3.873,0-7.012,3.139-7.012,7.012c0,3.873,3.139,7.012,7.012,7.012
			c1.966,0,3.741-0.812,5.014-2.116c1.01,1.286,2.576,2.116,4.339,2.116c2.503,0,4.613-1.667,5.289-3.95
			c1.308,1.444,3.192,2.357,5.293,2.357c2.061,0,3.913-0.877,5.217-2.272c0.268,3.426,3.127,6.125,6.622,6.125
			c2.758,0,5.123-1.679,6.13-4.071c0.945,0.355,1.964,0.559,3.033,0.559c2.058,0,3.945-0.723,5.428-1.926
			c0.694,2.728,3.159,4.749,6.103,4.749c2.679,0,4.962-1.674,5.875-4.031c0.73,0.474,1.6,0.753,2.536,0.753
			c2.577,0,4.665-2.089,4.665-4.665C226.004,362.212,223.915,360.123,221.338,360.123z"/>
		<rect x="150.329" y="364.975" style="fill:#446382;" width="78.375" height="8.957"/>
		<rect x="150.329" y="371.161" style="fill:#334856;" width="78.375" height="2.771"/>
		<rect x="247.405" y="364.975" style="fill:#446382;" width="44.87" height="8.957"/>
		<rect x="247.405" y="371.161" style="fill:#334856;" width="44.87" height="2.771"/>
		<path style="fill:#FFFFFF;" d="M160.894,362.887c0-0.343-0.255-0.623-0.585-0.67c-0.046-0.33-0.327-0.585-0.67-0.585
			c-0.343,0-0.623,0.255-0.67,0.585c-0.33,0.047-0.585,0.327-0.585,0.67c0,0.343,0.255,0.624,0.585,0.67
			c0.047,0.33,0.327,0.585,0.67,0.585c0.343,0,0.623-0.255,0.67-0.585C160.639,363.51,160.894,363.23,160.894,362.887z"/>
		<path style="fill:#FFFFFF;" d="M165.248,359.528c0-0.343-0.255-0.623-0.585-0.67c-0.047-0.33-0.327-0.585-0.67-0.585
			s-0.623,0.255-0.67,0.585c-0.33,0.047-0.585,0.327-0.585,0.67c0,0.343,0.255,0.623,0.585,0.67c0.047,0.33,0.327,0.585,0.67,0.585
			s0.623-0.255,0.67-0.585C164.993,360.151,165.248,359.871,165.248,359.528z"/>
		<path style="fill:#FFFFFF;" d="M169.363,362.887c0-0.343-0.255-0.623-0.585-0.67c-0.047-0.33-0.327-0.585-0.67-0.585
			c-0.343,0-0.623,0.255-0.67,0.585c-0.33,0.047-0.585,0.327-0.585,0.67c0,0.343,0.255,0.624,0.585,0.67
			c0.047,0.33,0.327,0.585,0.67,0.585c0.343,0,0.623-0.255,0.67-0.585C169.109,363.51,169.363,363.23,169.363,362.887z"/>
		<path style="fill:#FFFFFF;" d="M179.316,358.273c0-0.343-0.255-0.623-0.585-0.67c-0.046-0.33-0.327-0.585-0.67-0.585
			c-0.343,0-0.623,0.255-0.67,0.585c-0.33,0.047-0.585,0.327-0.585,0.67c0,0.343,0.255,0.623,0.585,0.67
			c0.047,0.33,0.327,0.585,0.67,0.585c0.343,0,0.623-0.255,0.67-0.585C179.061,358.897,179.316,358.616,179.316,358.273z"/>
		<path style="fill:#FFFFFF;" d="M176.347,362.887c0-0.343-0.255-0.623-0.585-0.67c-0.047-0.33-0.327-0.585-0.67-0.585
			s-0.623,0.255-0.67,0.585c-0.33,0.047-0.585,0.327-0.585,0.67c0,0.343,0.255,0.624,0.585,0.67c0.047,0.33,0.327,0.585,0.67,0.585
			s0.623-0.255,0.67-0.585C176.092,363.51,176.347,363.23,176.347,362.887z"/>
		<path style="fill:#FFFFFF;" d="M184.434,361.633c0-0.343-0.255-0.623-0.585-0.67c-0.047-0.33-0.327-0.585-0.67-0.585
			c-0.343,0-0.623,0.255-0.67,0.585c-0.33,0.047-0.585,0.327-0.585,0.67s0.255,0.623,0.585,0.67c0.047,0.33,0.327,0.585,0.67,0.585
			c0.343,0,0.623-0.255,0.67-0.585C184.179,362.256,184.434,361.975,184.434,361.633z"/>
		<path style="fill:#FFFFFF;" d="M197.87,358.273c0-0.343-0.255-0.623-0.585-0.67c-0.047-0.33-0.327-0.585-0.67-0.585
			c-0.343,0-0.623,0.255-0.67,0.585c-0.33,0.047-0.585,0.327-0.585,0.67c0,0.343,0.255,0.623,0.585,0.67
			c0.047,0.33,0.327,0.585,0.67,0.585c0.343,0,0.623-0.255,0.67-0.585C197.615,358.897,197.87,358.616,197.87,358.273z"/>
		<path style="fill:#FFFFFF;" d="M204.827,362.037c0-0.343-0.255-0.623-0.585-0.67c-0.046-0.33-0.327-0.585-0.67-0.585
			c-0.343,0-0.623,0.255-0.67,0.585c-0.33,0.047-0.585,0.327-0.585,0.67c0,0.343,0.255,0.623,0.585,0.67
			c0.047,0.33,0.327,0.585,0.67,0.585c0.343,0,0.623-0.255,0.67-0.585C204.572,362.66,204.827,362.38,204.827,362.037z"/>
		<path style="fill:#FFFFFF;" d="M208.186,355.883c0-0.343-0.255-0.623-0.585-0.67c-0.046-0.33-0.327-0.585-0.67-0.585
			c-0.343,0-0.623,0.255-0.67,0.585c-0.33,0.047-0.585,0.327-0.585,0.67c0,0.343,0.255,0.624,0.585,0.67
			c0.047,0.33,0.327,0.585,0.67,0.585c0.343,0,0.624-0.255,0.67-0.585C207.931,356.506,208.186,356.225,208.186,355.883z"/>
		<path style="fill:#FFFFFF;" d="M216.148,362.037c0-0.343-0.255-0.623-0.585-0.67c-0.047-0.33-0.327-0.585-0.67-0.585
			c-0.343,0-0.623,0.255-0.67,0.585c-0.33,0.047-0.585,0.327-0.585,0.67c0,0.343,0.255,0.623,0.585,0.67
			c0.047,0.33,0.327,0.585,0.67,0.585c0.343,0,0.623-0.255,0.67-0.585C215.893,362.66,216.148,362.38,216.148,362.037z"/>
		<path style="fill:#FFFFFF;" d="M224.633,362.887c0-0.343-0.255-0.623-0.584-0.67c-0.047-0.33-0.327-0.585-0.67-0.585
			s-0.623,0.255-0.67,0.585c-0.33,0.047-0.585,0.327-0.585,0.67c0,0.343,0.255,0.624,0.585,0.67c0.047,0.33,0.327,0.585,0.67,0.585
			s0.623-0.255,0.67-0.585C224.379,363.51,224.633,363.23,224.633,362.887z"/>
		<path style="fill:#FFFFFF;" d="M258.97,359.528c0-0.343-0.255-0.623-0.585-0.67c-0.047-0.33-0.327-0.585-0.67-0.585
			c-0.343,0-0.623,0.255-0.67,0.585c-0.33,0.047-0.585,0.327-0.585,0.67c0,0.343,0.255,0.623,0.585,0.67
			c0.047,0.33,0.327,0.585,0.67,0.585c0.343,0,0.623-0.255,0.67-0.585C258.715,360.151,258.97,359.871,258.97,359.528z"/>
		<path style="fill:#FFFFFF;" d="M255.611,363.039c0-0.343-0.255-0.623-0.585-0.67c-0.046-0.33-0.327-0.585-0.67-0.585
			c-0.343,0-0.623,0.255-0.67,0.585c-0.33,0.047-0.585,0.327-0.585,0.67c0,0.343,0.255,0.623,0.585,0.67
			c0.047,0.33,0.327,0.585,0.67,0.585c0.343,0,0.624-0.255,0.67-0.585C255.356,363.663,255.611,363.382,255.611,363.039z"/>
		<path style="fill:#FFFFFF;" d="M263.496,362.887c0-0.343-0.255-0.623-0.585-0.67c-0.046-0.33-0.327-0.585-0.67-0.585
			c-0.343,0-0.623,0.255-0.67,0.585c-0.33,0.047-0.585,0.327-0.585,0.67c0,0.343,0.255,0.624,0.585,0.67
			c0.047,0.33,0.327,0.585,0.67,0.585c0.343,0,0.623-0.255,0.67-0.585C263.241,363.51,263.496,363.23,263.496,362.887z"/>
		<path style="fill:#FFFFFF;" d="M272.684,360.378c0-0.343-0.255-0.623-0.585-0.67c-0.047-0.33-0.327-0.585-0.67-0.585
			c-0.343,0-0.623,0.255-0.67,0.585c-0.33,0.047-0.585,0.327-0.585,0.67c0,0.343,0.255,0.623,0.585,0.67
			c0.047,0.33,0.327,0.585,0.67,0.585c0.343,0,0.623-0.255,0.67-0.585C272.429,361.001,272.684,360.721,272.684,360.378z"/>
		<path style="fill:#FFFFFF;" d="M286.041,360.783c0-0.343-0.255-0.623-0.585-0.67c-0.047-0.33-0.327-0.585-0.67-0.585
			c-0.343,0-0.623,0.255-0.67,0.585c-0.33,0.046-0.585,0.327-0.585,0.67s0.255,0.623,0.585,0.67c0.047,0.33,0.327,0.584,0.67,0.584
			c0.343,0,0.624-0.255,0.67-0.584C285.786,361.406,286.041,361.125,286.041,360.783z"/>
		<path style="fill:#FFFFFF;" d="M276.686,362.887c0-0.343-0.255-0.623-0.585-0.67c-0.047-0.33-0.327-0.585-0.67-0.585
			s-0.623,0.255-0.67,0.585c-0.33,0.047-0.585,0.327-0.585,0.67c0,0.343,0.255,0.624,0.585,0.67c0.047,0.33,0.327,0.585,0.67,0.585
			s0.623-0.255,0.67-0.585C276.432,363.51,276.686,363.23,276.686,362.887z"/>
		<g>
			<path style="fill:#EFDA86;" d="M322.233,337.081c0,2.094,1.698,3.792,3.792,3.792c2.094,0,3.792-1.698,3.792-3.792
				c0-2.094-1.698-3.792-3.792-3.792C323.931,333.288,322.233,334.986,322.233,337.081z"/>
			<g>
				<path style="opacity:0.1;" d="M322.233,337.081c0,2.094,1.698,3.792,3.792,3.792c2.094,0,3.792-1.698,3.792-3.792
					c0-2.094-1.698-3.792-3.792-3.792C323.931,333.288,322.233,334.986,322.233,337.081z"/>
				<path style="fill:#EFDA86;" d="M322.233,336.232c0,1.626,1.318,2.944,2.944,2.944s2.944-1.318,2.944-2.944
					s-1.318-2.944-2.944-2.944S322.233,334.606,322.233,336.232z"/>
			</g>
		</g>
		<rect x="292.107" y="364.975" style="fill:#334856;" width="2.071" height="8.957"/>
		<rect x="302.314" y="385.891" style="fill:#446382;" width="50.524" height="8.79"/>
		<rect x="302.314" y="390.581" style="fill:#334856;" width="50.524" height="4.166"/>
		<g style="opacity:0.5;">
			<defs>
				<polygon id="SVGID_1_" style="opacity:0.5;" points="238.618,256.71 113.048,297.739 118.788,313.457 238.618,274.523 				"/>
			</defs>
			<clipPath id="SVGID_00000065063344721121208270000003431423307472813992_">
				<use xlink:href="#SVGID_1_"  style="overflow:visible;"/>
			</clipPath>
			
				<line style="clip-path:url(#SVGID_00000065063344721121208270000003431423307472813992_);fill:none;stroke:#334856;stroke-width:4.338;stroke-miterlimit:10;" x1="116.709" y1="288.677" x2="126.766" y2="314.549"/>
			
				<line style="clip-path:url(#SVGID_00000065063344721121208270000003431423307472813992_);fill:none;stroke:#334856;stroke-width:4.338;stroke-miterlimit:10;" x1="129.418" y1="285.792" x2="139.476" y2="311.664"/>
			
				<line style="clip-path:url(#SVGID_00000065063344721121208270000003431423307472813992_);fill:none;stroke:#334856;stroke-width:4.338;stroke-miterlimit:10;" x1="140.343" y1="280.861" x2="150.401" y2="306.734"/>
			
				<line style="clip-path:url(#SVGID_00000065063344721121208270000003431423307472813992_);fill:none;stroke:#334856;stroke-width:4.338;stroke-miterlimit:10;" x1="153.102" y1="275.741" x2="163.16" y2="301.613"/>
			
				<line style="clip-path:url(#SVGID_00000065063344721121208270000003431423307472813992_);fill:none;stroke:#334856;stroke-width:4.338;stroke-miterlimit:10;" x1="165.811" y1="272.856" x2="175.869" y2="298.728"/>
			
				<line style="clip-path:url(#SVGID_00000065063344721121208270000003431423307472813992_);fill:none;stroke:#334856;stroke-width:4.338;stroke-miterlimit:10;" x1="178.521" y1="269.97" x2="188.579" y2="295.843"/>
			
				<line style="clip-path:url(#SVGID_00000065063344721121208270000003431423307472813992_);fill:none;stroke:#334856;stroke-width:4.338;stroke-miterlimit:10;" x1="191.23" y1="267.085" x2="201.288" y2="292.958"/>
			
				<line style="clip-path:url(#SVGID_00000065063344721121208270000003431423307472813992_);fill:none;stroke:#334856;stroke-width:4.338;stroke-miterlimit:10;" x1="203.94" y1="264.2" x2="213.998" y2="290.073"/>
			
				<line style="clip-path:url(#SVGID_00000065063344721121208270000003431423307472813992_);fill:none;stroke:#334856;stroke-width:4.338;stroke-miterlimit:10;" x1="216.649" y1="261.315" x2="226.707" y2="287.188"/>
			
				<line style="clip-path:url(#SVGID_00000065063344721121208270000003431423307472813992_);fill:none;stroke:#334856;stroke-width:4.338;stroke-miterlimit:10;" x1="229.359" y1="258.43" x2="239.416" y2="284.303"/>
		</g>
		<g style="opacity:0.5;">
			<defs>
				<polygon id="SVGID_00000147929794149192164450000002727664321038555827_" style="opacity:0.5;" points="367.574,237.686 
					298.838,176.321 233.828,233.992 222.725,221.475 298.873,153.923 378.717,225.204 				"/>
			</defs>
			<clipPath id="SVGID_00000022518212085506981860000010430928584297303965_">
				<use xlink:href="#SVGID_00000147929794149192164450000002727664321038555827_"  style="overflow:visible;"/>
			</clipPath>
			<g style="clip-path:url(#SVGID_00000022518212085506981860000010430928584297303965_);">
				
					<line style="fill:none;stroke:#334856;stroke-width:4.338;stroke-miterlimit:10;" x1="222.069" y1="210.004" x2="240.713" y2="230.57"/>
				
					<line style="fill:none;stroke:#334856;stroke-width:4.338;stroke-miterlimit:10;" x1="235.172" y1="205.619" x2="253.815" y2="226.185"/>
				
					<line style="fill:none;stroke:#334856;stroke-width:4.338;stroke-miterlimit:10;" x1="243.744" y1="195.918" x2="262.388" y2="216.484"/>
				
					<line style="fill:none;stroke:#334856;stroke-width:4.338;stroke-miterlimit:10;" x1="253.066" y1="186.839" x2="271.71" y2="207.405"/>
				
					<line style="fill:none;stroke:#334856;stroke-width:4.338;stroke-miterlimit:10;" x1="263.904" y1="179.601" x2="282.548" y2="200.167"/>
				
					<line style="fill:none;stroke:#334856;stroke-width:4.338;stroke-miterlimit:10;" x1="274.742" y1="172.362" x2="293.385" y2="192.928"/>
				
					<line style="fill:none;stroke:#334856;stroke-width:4.338;stroke-miterlimit:10;" x1="285.579" y1="165.123" x2="304.223" y2="185.689"/>
			</g>
			<g style="clip-path:url(#SVGID_00000022518212085506981860000010430928584297303965_);">
				
					<line style="fill:none;stroke:#334856;stroke-width:4.338;stroke-miterlimit:10;" x1="377.275" y1="208.268" x2="358.631" y2="228.834"/>
				
					<line style="fill:none;stroke:#334856;stroke-width:4.338;stroke-miterlimit:10;" x1="364.172" y1="203.884" x2="345.528" y2="224.45"/>
				
					<line style="fill:none;stroke:#334856;stroke-width:4.338;stroke-miterlimit:10;" x1="355.599" y1="194.183" x2="336.956" y2="214.749"/>
				
					<line style="fill:none;stroke:#334856;stroke-width:4.338;stroke-miterlimit:10;" x1="346.277" y1="185.104" x2="327.634" y2="205.67"/>
				
					<line style="fill:none;stroke:#334856;stroke-width:4.338;stroke-miterlimit:10;" x1="335.44" y1="177.865" x2="316.796" y2="198.431"/>
				
					<line style="fill:none;stroke:#334856;stroke-width:4.338;stroke-miterlimit:10;" x1="324.602" y1="170.627" x2="305.958" y2="191.193"/>
				
					<line style="fill:none;stroke:#334856;stroke-width:4.338;stroke-miterlimit:10;" x1="313.764" y1="163.388" x2="295.121" y2="183.954"/>
			</g>
		</g>
		<g style="opacity:0.5;">
			<defs>
				
					<rect id="SVGID_00000034778693831118495650000015542026871723853955_" x="153.799" y="227.933" style="opacity:0.5;" width="28.987" height="16.732"/>
			</defs>
			<clipPath id="SVGID_00000157304839126746717040000011605484707915500965_">
				<use xlink:href="#SVGID_00000034778693831118495650000015542026871723853955_"  style="overflow:visible;"/>
			</clipPath>
			
				<line style="clip-path:url(#SVGID_00000157304839126746717040000011605484707915500965_);fill:none;stroke:#334856;stroke-width:4.338;stroke-miterlimit:10;" x1="161.229" y1="224.506" x2="161.224" y2="252.265"/>
			
				<line style="clip-path:url(#SVGID_00000157304839126746717040000011605484707915500965_);fill:none;stroke:#334856;stroke-width:4.338;stroke-miterlimit:10;" x1="174.975" y1="224.359" x2="174.971" y2="252.117"/>
		</g>
	</g>
	<g>
		<rect x="394.998" y="289.988" style="fill:#446382;" width="12.83" height="105.239"/>
		<rect x="394.998" y="293.798" style="fill:#334856;" width="12.83" height="72.919"/>
		<g>
			<rect x="357.05" y="300.408" style="fill:#FFFFFF;" width="88.726" height="56.943"/>
			<path style="fill:#446382;" d="M442.567,303.616v50.528h-82.309v-50.528H442.567 M448.982,297.201h-95.139v63.358h95.139V297.201
				L448.982,297.201z"/>
		</g>
		<rect x="354.71" y="308.955" style="fill:none;" width="94.54" height="52.472"/>
		<text transform="matrix(1 0 0 1 382.1309 322.3154)"><tspan x="0" y="0" style="fill:#446382; font-family:'Quicksand-Bold'; font-size:19.087px;">FOR</tspan><tspan x="-17.898" y="26.028" style="fill:#446382; font-family:'Quicksand-Bold'; font-size:28.6304px;">RENT</tspan></text>
	</g>
	<g>
		<path style="fill:#4D8974;" d="M442.599,406.055c0,6.282-5.092,11.374-11.375,11.374H61.214c-6.282,0-11.374-5.092-11.374-11.374
			l0,0c0-6.282,5.092-11.374,11.374-11.374h370.01C437.507,394.68,442.599,399.773,442.599,406.055L442.599,406.055z"/>
		<path style="fill:#2C755D;" d="M61.214,418.042h370.01c6.282,0,11.374-5.092,11.374-11.374H49.84
			C49.84,412.949,54.932,418.042,61.214,418.042z"/>
	</g>
</g>
</svg>
